<?xml version="1.0" encoding="UTF-8"?>
<svg id="Camada_2" data-name="Camada 2" xmlns="http://www.w3.org/2000/svg" viewBox="0 0 2765.45 3204.13">
  <defs>
    <style>
      .cls-1 {
        fill: none;
        stroke: #fff;
        stroke-miterlimit: 10;
        stroke-width: 4px;
      }

      .cls-2 {
        opacity: .08;
      }
    </style>
  </defs>
  <g id="Layer_1" data-name="Layer 1">
    <g class="cls-2">
      <g>
        <path class="cls-1" d="M32.44,2368.33l99.47-632.51c-34.77-30.99-74.53-58.85-108.17-91.03-8.14-7.78-22.71-18.59-21.69-29.99l129.47-220.91.12-560.57,332.47-139.53-85.6-345.51c-5.44-54.21,31.57-104.95,84.05-118.07l438.31-101.69c6.83-5.11,3.68-29.51,6.17-41.35,9.04-43.03,41.29-73.88,83.32-85.16l783.3.88c57.52,16.13,85.53,65.11,86.72,122.8l452.97,110.8c46.98,17.38,74.95,66.73,68.7,116.14l-88.45,344.1,334.44,134.41.7,576.04c1.75,9.23,41.16,33.47,51.93,43.11,44.68,40.03,77.26,89.44,82.17,151.11,5.53,69.42-27.57,311.12-50.01,377.98-39.25,116.92-154.16,192.24-272.22,211.62-11.94,55.73-13.02,119.68-29.07,173.97-41.57,140.61-270.41,333.22-385.54,426.62-168.7,136.86-371.72,273.2-565.06,372.38-15.01,7.7-67.05,36.94-78.93,38.11-15.22,1.51-61.35-25.24-78.08-33.79-281.96-144.13-633.96-392.08-846.04-627.08-46.22-51.22-88.75-108.16-114.42-172.86H32.44ZM900.76,290.41v-86.4l-414.87,92.73c-20.26,5.27-37.87,25.22-34.13,47.07l93.63,377.65.46,17.58-344.36,141.62-.81,521.91-121.01,207.31c30.25,25.64,67.03,50.66,95.37,77.98,8.97,8.65,21.47,17.36,21.95,30.26l-91.13,585.4h285.12c3.12,12.56,6.91,25.65,12.18,37.5,51.01,114.82,154.88,209.86,246.96,293.04,216.8,195.84,469.38,364.83,731.59,493.61,195.68-99,382.58-216.61,555.38-351.56,111.94-87.42,363.65-292.8,406.67-422.77,23.15-69.94,25.86-150.61,40.64-222.88,43.15-6.63,83.9-9.62,124.91-26.29,93.34-37.94,135.12-110.3,152.79-205.77,12.75-68.87,37.28-205.2,36.05-271.01-1.63-86.92-65.64-140.76-138.71-173.49l-.33-575.51-349.05-139.12,97.9-387.37c8.04-31.6-14.93-51.52-43.64-57.82l-404.55-94.41v90.72l353.77,89.23-135.71,507.03-290.8-136.87-.68-630.04c-3.4-31.7-20.53-51.58-53.83-49.85-226.4,14.75-476.57-19.01-700.17.03-39.16,3.33-54.76,13.41-58.34,53.98l.36,604.25-300.26,158.36-122.73-513.49,349.36-82.63Z"/>
        <path class="cls-1" d="M900.76,290.41l-349.36,82.63,122.73,513.49,300.26-158.36-.36-604.25c3.58-40.57,19.18-50.64,58.34-53.98,223.61-19.04,473.77,14.72,700.17-.03,33.3-1.73,50.43,18.15,53.83,49.85l.68,630.04,290.8,136.87,135.71-507.03-353.77-89.23v-90.72l404.55,94.41c28.71,6.31,51.68,26.22,43.64,57.82l-97.9,387.37,349.05,139.12.33,575.51c73.07,32.73,137.08,86.58,138.71,173.49,1.23,65.81-23.3,202.14-36.05,271.01-17.67,95.47-59.45,167.82-152.79,205.77-41.01,16.67-81.76,19.66-124.91,26.29-14.78,72.27-17.49,152.94-40.64,222.88-43.02,129.97-294.73,335.34-406.67,422.77-172.8,134.95-359.7,252.56-555.38,351.56-262.22-128.78-514.79-297.78-731.59-493.61-92.08-83.18-195.95-178.22-246.96-293.04-5.26-11.85-9.05-24.94-12.18-37.5H105.88l91.13-585.4c-.48-12.9-12.98-21.61-21.95-30.26-28.35-27.33-65.12-52.35-95.37-77.98l121.01-207.31.81-521.91,344.36-141.62-.46-17.58-93.63-377.65c-3.74-21.85,13.86-41.81,34.13-47.07l414.87-92.73v86.4ZM1693.48,156.49h-632.88v522.72l265.6-149.52,373.72,179.76-6.44-552.96ZM866.2,877.93h149.04c112.83-57.42,225.95-116.62,340.95-168.44l350.25,168.44h140.4l-319.56-162.12-179.1-84.11-481.98,246.23ZM637.24,994.57h-207.36c2.56,15.66,22.76,31.44,19.73,47.49l-175.25,449.31h133.92l30.24-90.72h129.6c5.64,29.95,4.5,60.3,4.32,90.72h138.24l-73.44-496.8ZM756.04,1491.37c35.93-4.93,81.71,3.64,118.8,0,3.66-20.51,11.63-158.15,17.32-164.12,1.51-1.58,39.6-.84,43.42,1.86l51.58,162.26h142.56l-65.1-178.97c34.27-11.55,61.53-36.03,71.66-71.51,8.42-29.48,19.42-109.87,19.72-140.48.6-59.72-46.03-99.46-102.41-105.31-93.91-9.75-200.88,5.47-295.39,3.83,11.11,23.76,41.74,37.62,39.22,66.85-14.88,143.37-37.49,286.33-47.81,429.91,1.57,2.18,5.21-4.15,6.44-4.32ZM1553.08,994.57h-336.96c-3.14,19.51,24.74,36.69,25.36,53.76-18.24,148.85-40.93,297.95-51.3,447.38l302.38-4.38,17.32-103.64h-185.76l12.96-99.36h133.92l30.24-103.68h-151.2l13.58-85.8,172.15-.64,17.32-103.64ZM1561.72,1491.37h120.96l30.28-250.56,105.67,246.37c10.24,10.54,106.3.79,127.53,4.15l60.52-496.76h-123.12l-38.88,267.88-102.01-267.37-124.81-.54-56.14,496.82ZM2343.64,994.57h-220.32c8.43,15.7,36.58,39.92,33.84,57.18l-172.08,439.62h133.92l26.35-85.96c44.89,2.12,88.77-5.9,133.51-4.79l4.3,90.75h142.56l-82.08-496.8ZM244.1,2195.55c20.05-3.41,39.36,3.5,58.16,4.48,89.05,4.65,287.63,10.41,365.14-19.7,63-24.47,91.39-66.68,106.07-131.53,19-83.94,43.3-228.51,49.46-313.42,7.26-100.13-37.45-146.22-135.84-153.46-115.81-8.52-284.94-5.97-402.11-.01-17.45.89-35.22,7.73-53.82,4.54,10.46,19.83,84.99,77.74,86.42,92.9l-73.48,516.19ZM853.24,2195.53h170.64c10.28,0,26.79-185.49,32.44-203l57.8-.31,63.11,203.31h185.76l-73.45-207.3c38.03-9.15,75.18-33.68,93.06-69.02,19.71-38.96,46.59-213.78,39.83-256.16-8.58-53.83-55.39-76.78-104.86-80.9-111.19-9.26-284.64-6.39-397.58-.27-15.27.83-29.73,5.79-45.15,4.57l56.07,84.36-77.67,524.72ZM1629.8,1583.21c-98.37,13.32-119.69,77.4-135.84,162.24-18.07,94.94-45.81,234.01-52.62,327.5-5.28,72.48,39.18,118.15,110.05,126.43,64.18,7.5,201.6,5.84,267.53.62,75.5-5.98,126.48-49.01,146.76-121.08,34.12-121.25,39.75-278.39,58.23-403.91-4.67-50.26-48.92-86.81-97.61-92.47-62.08-7.21-235.32-7.63-296.5.65ZM2501.32,1582.09h-419.04c-4.48,0-6.58,8.66-5.78,14.1,3.24,22.07,43.24,55.78,38.28,82.87l-77.86,516.46h172.8l25.96-181.4c93.14-1.48,279.8,19.63,326.13-86.43,14.2-32.5,43.07-208.02,40.55-243.52-4.13-58.01-44.26-95.38-101.03-102.09ZM2205.4,2303.53h-118.8c-202,218.06-452.38,382.35-708.52,529.84-257.71-146.82-515.69-304.4-712.76-529.84h-118.8c129.38,168.46,304.37,305.75,478.15,426.89,113.71,79.26,232.07,154.34,353.47,220.83,183.9-106.08,364.96-221.82,531.22-354.08,93.51-74.38,209.49-172.79,280.48-268.16,3.01-4.05,18.99-22.52,15.56-25.48ZM948.28,2428.86c133.43,100.24,280.86,180.77,426.17,262.58,150.9-78.57,295.55-169.56,433.43-269.14l-434.07,101.56-425.52-94.99Z"/>
        <polygon class="cls-1" points="1693.48 156.49 1699.92 709.45 1326.2 529.69 1060.6 679.21 1060.6 156.49 1693.48 156.49"/>
        <path class="cls-1" d="M2205.4,2303.53c3.43,2.96-12.55,21.43-15.56,25.48-70.99,95.37-186.97,193.78-280.48,268.16-166.26,132.26-347.32,248-531.22,354.08-121.4-66.49-239.76-141.57-353.47-220.83-173.79-121.13-348.77-258.42-478.15-426.89h118.8c197.07,225.44,455.05,383.02,712.76,529.84,256.14-147.49,506.52-311.77,708.52-529.84h118.8Z"/>
        <path class="cls-1" d="M948.28,2428.86l425.52,94.99,434.07-101.56c-137.88,99.58-282.53,190.57-433.43,269.14-145.31-81.8-292.73-162.33-426.17-262.58Z"/>
        <path class="cls-1" d="M866.2,877.93l481.98-246.23,179.1,84.11,319.56,162.12h-140.4l-350.25-168.44c-115,51.82-228.12,111.01-340.95,168.44h-149.04Z"/>
        <g>
          <path class="cls-1" d="M244.1,2195.55l73.48-516.19c-1.43-15.16-75.96-73.07-86.42-92.9,18.6,3.19,36.37-3.65,53.82-4.54,117.16-5.96,286.3-8.51,402.11.01,98.39,7.24,143.1,53.32,135.84,153.46-6.16,84.91-30.45,229.48-49.46,313.42-14.68,64.84-43.07,107.06-106.07,131.53-77.51,30.11-276.09,24.34-365.14,19.7-18.8-.98-38.11-7.89-58.16-4.48ZM434.2,2070.25h136.08c2.6,0,22.9-13.28,25.87-17.33,5.1-6.99,6.92-17.24,8.92-25.64,15.43-64.77,37.62-204.7,40.74-270.26,1.45-30.49,1.36-42.48-32.12-45.53-40.48-3.68-86.5,3.11-127.61.25l-51.88,358.52Z"/>
          <path class="cls-1" d="M1629.8,1583.21c61.18-8.28,234.42-7.87,296.5-.65,48.69,5.66,92.94,42.21,97.61,92.47-18.49,125.51-24.11,282.65-58.23,403.91-20.28,72.07-71.26,115.1-146.76,121.08-65.93,5.22-203.34,6.88-267.53-.62-70.86-8.28-115.32-53.95-110.05-126.43,6.81-93.49,34.55-232.56,52.62-327.5,16.14-84.84,37.47-148.92,135.84-162.24ZM1703.14,1708.39c-16.21,2.91-28.15,12.49-31.39,29.09l-48.87,312.29c3.38,9.63,8.07,18.32,18.85,20.39,15.79,3.03,117.68,2.95,133.72-.03,9.76-1.81,17.36-10.17,19.24-19.64l47.83-323.47c-1.04-6.31-3.27-9.77-8.84-12.96-16.17-9.26-109.55-9.43-130.53-5.67Z"/>
          <path class="cls-1" d="M853.24,2195.53l77.67-524.72-56.07-84.36c15.42,1.22,29.88-3.74,45.15-4.57,112.94-6.12,286.39-8.99,397.58.27,49.48,4.12,96.28,27.07,104.86,80.9,6.76,42.39-20.12,217.21-39.83,256.16-17.88,35.34-55.03,59.86-93.06,69.02l73.45,207.3h-185.76l-63.11-203.31-57.8.31c-5.65,17.51-22.16,203-32.44,203h-170.64ZM1073.56,1875.85h123.12c2.25,0,25.32-8.59,28.01-10.87,12.14-10.25,32.04-137.94,25.38-148.36-46.49-17.79-100.91-6.29-150.13-8.78l-26.38,168.01Z"/>
          <path class="cls-1" d="M2501.32,1582.09c56.77,6.71,96.9,44.08,101.03,102.09,2.53,35.49-26.35,211.01-40.55,243.52-46.33,106.06-232.98,84.95-326.13,86.43l-25.96,181.4h-172.8l77.86-516.46c4.96-27.1-35.04-60.8-38.28-82.87-.8-5.44,1.3-14.1,5.78-14.1h419.04ZM2252.92,1884.49h127.44c7.9,0,26.75-22,29.56-30.92,5.93-18.81,14.82-84.27,15.74-105.23,1.29-29.22-1.54-38.4-32.14-41.18-14.53-1.32-108.91-1.56-112.82,4.24l-27.79,173.09Z"/>
          <path class="cls-1" d="M434.2,2070.25l51.88-358.52c41.11,2.86,87.13-3.93,127.61-.25,33.47,3.04,33.57,15.04,32.12,45.53-3.12,65.56-25.31,205.5-40.74,270.26-2,8.4-3.82,18.65-8.92,25.64-2.96,4.06-23.27,17.33-25.87,17.33h-136.08Z"/>
          <path class="cls-1" d="M1703.14,1708.39c20.98-3.76,114.36-3.6,130.53,5.67,5.57,3.19,7.79,6.64,8.84,12.96l-47.83,323.47c-1.88,9.47-9.48,17.84-19.24,19.64-16.03,2.97-117.93,3.06-133.72.03-10.78-2.07-15.47-10.76-18.85-20.39l48.87-312.29c3.24-16.6,15.18-26.18,31.39-29.09Z"/>
          <path class="cls-1" d="M1073.56,1875.85l26.38-168.01c49.23,2.49,103.65-9.02,150.13,8.78,6.67,10.42-13.24,138.11-25.38,148.36-2.69,2.28-25.76,10.87-28.01,10.87h-123.12Z"/>
          <path class="cls-1" d="M2252.92,1884.49l27.79-173.09c3.9-5.8,98.29-5.56,112.82-4.24,30.6,2.78,33.43,11.96,32.14,41.18-.92,20.95-9.82,86.41-15.74,105.23-2.81,8.92-21.66,30.92-29.56,30.92h-127.44Z"/>
        </g>
        <g>
          <path class="cls-1" d="M1561.72,1491.37l56.14-496.82,124.81.54,102.01,267.37,38.88-267.88h123.12l-60.52,496.76c-21.23-3.36-117.29,6.39-127.53-4.15l-105.67-246.37-30.28,250.56h-120.96Z"/>
          <path class="cls-1" d="M1553.08,994.57l-17.32,103.64-172.15.64-13.58,85.8h151.2l-30.24,103.68h-133.92l-12.96,99.36h185.76l-17.32,103.64-302.38,4.38c10.37-149.43,33.06-298.53,51.3-447.38-.62-17.06-28.5-34.25-25.36-53.76h336.96Z"/>
          <g>
            <path class="cls-1" d="M756.04,1491.37c-1.22.17-4.86,6.5-6.44,4.32,10.33-143.58,32.93-286.53,47.81-429.91,2.52-29.23-28.11-43.09-39.22-66.85,94.51,1.64,201.47-13.58,295.39-3.83,56.38,5.85,103,45.6,102.41,105.31-.31,30.61-11.3,110.99-19.72,140.48-10.13,35.48-37.39,59.97-71.66,71.51l65.1,178.97h-142.56l-51.58-162.26c-3.81-2.7-41.91-3.44-43.42-1.86-5.69,5.97-13.66,143.61-17.32,164.12-37.09,3.64-82.87-4.93-118.8,0ZM905.08,1227.85h88.56c3.61,0,16.54-10.7,18.49-16.07,4.42-12.17,12.42-95.81,8.88-106.34-6.45-19.18-79.96-10.62-98.93-9.63l-16.99,132.05Z"/>
            <path class="cls-1" d="M905.08,1227.85l16.99-132.05c18.97-.99,92.48-9.55,98.93,9.63,3.54,10.52-4.46,94.17-8.88,106.34-1.95,5.37-14.88,16.07-18.49,16.07h-88.56Z"/>
          </g>
          <g>
            <path class="cls-1" d="M2343.64,994.57l82.08,496.8h-142.56l-4.3-90.75c-44.75-1.11-88.62,6.91-133.51,4.79l-26.35,85.96h-133.92l172.08-439.62c2.73-17.26-25.42-41.48-33.84-57.18h220.32ZM2265.88,1305.61l-17.32-185.76-69.08,185.76h86.4Z"/>
            <polygon class="cls-1" points="2265.88 1305.61 2179.48 1305.61 2248.56 1119.85 2265.88 1305.61"/>
          </g>
          <g>
            <path class="cls-1" d="M637.24,994.57l73.44,496.8h-138.24c.18-30.42,1.32-60.77-4.32-90.72h-129.6l-30.24,90.72h-133.92l175.25-449.31c3.03-16.05-17.17-31.83-19.73-47.49h207.36ZM559.48,1301.29l-17.32-190.08-73.4,190.08h90.72Z"/>
            <polygon class="cls-1" points="559.48 1301.29 468.76 1301.29 542.16 1111.21 559.48 1301.29"/>
          </g>
        </g>
      </g>
    </g>
  </g>
</svg>