<?xml version="1.0" encoding="UTF-8"?>
<svg id="Camada_2" data-name="Camada 2" xmlns="http://www.w3.org/2000/svg" viewBox="0 0 1156.84 1414.65">
  <defs>
    <style>
      .cls-1 {
        fill: #fb6407;
      }

      .cls-2 {
        fill: #f6610c;
      }

      .cls-3 {
        fill: #fcf9f4;
      }

      .cls-4 {
        fill: #040608;
      }
    </style>
  </defs>
  <g id="Layer_1" data-name="Layer 1">
    <g>
      <g>
        <path class="cls-1" d="M730.16,95.61v253.02c-50.61-21.73-100.12-46.41-151.6-65.98l-151.61,68.09V95.61h303.22Z"/>
        <path class="cls-1" d="M922.54,1009.44c-71.31,72.3-153.14,134.15-238.57,189.07-34.17,21.97-69.19,43.21-105.25,61.91-122.16-71.28-241.88-150.7-342.08-250.98h55.42c89.61,71.58,185.15,136.24,286.49,190.13,103-52.11,198.12-118.81,288.57-190.13h55.42Z"/>
        <path class="cls-1" d="M1050.41,339.97l105.31,46.29,1.11,419.38c-10.62,198.18-153.44,324.76-301.39,434.69-87.4,64.94-180.36,123.37-276.56,174.32-98.35-53.57-193.88-113.4-283.51-180.59C158.21,1131.23,22.31,1010.22,2.7,828.29-2.69,682.22,1.97,535.61.19,389.33l106.55-49.33-27.02-132.43c-.49-36.73,22.45-51.85,54.01-61.18,64.85-19.18,131.61-33.33,196.92-50.87-3.49-41.88,3.52-84.29,50.17-95.17l387.44-.35c36.1,5.34,54.65,30.2,58.06,65.31.62,6.39-1.98,26.31,2.06,29.3l207.07,54.32c24.85,5.41,41.78,27.09,43.97,52.17-8.5,46.49-22.14,92.31-29.02,138.86ZM826.35,191.8l148.3,41.04-48.36,200.04-4.69,3.61-143.01-66.24-.33-298.7c-1.25-11.18-5.6-19.42-16.68-23.06l-362.97,1.01c-27.94,1.75-18.84,39.93-19.68,59.78-.21,4.95-2.12,9.52-2.26,14.47-2.48,82.69,1.97,165.84.16,248.56l-139.65,63.76c-4.84,1.72-6.48-2.13-7.44-6.3-15.93-65.96-34.22-131.83-47.42-198.2l148.43-37.69v-48.1c-65.46,17.71-131.76,33.67-196.51,53.37l-5.49,7.23,34.55,159.72-114.94,52.93v378.23c9.16,168.7,121.13,278.31,245.88,375.19,89.61,69.58,186.51,131.64,286.06,185.73,99.85-55.22,197.06-117.2,286.74-187.82,122.26-96.28,232.92-204.93,241.7-371v-380.32s-117.14-51.72-117.14-51.72l35.36-155.95c.78-4.27.43-8.37-2.81-11.4l-197.79-54.18v46.01Z"/>
        <path class="cls-4" d="M748.98,829.6v-257.21h78.42c4.03,0,20.19,4.66,24.81,6.55,23.1,9.44,32.99,33.49,34.86,57.15,2.47,31.26,3.54,120.95-4.38,148.42-5.73,19.88-29.44,45.08-51.11,45.08h-82.6Z"/>
        <path class="cls-4" d="M826.35,191.8v-46.01l197.79,54.18c3.24,3.03,3.59,7.13,2.81,11.4l-35.36,155.95,117.14,51.72v380.32c-8.78,166.08-119.44,274.72-241.7,371-89.68,70.62-186.89,132.61-286.74,187.82-99.54-54.1-196.45-116.15-286.06-185.73-124.75-96.87-236.72-206.48-245.88-375.19v-378.23s114.94-52.93,114.94-52.93l-34.55-159.72,5.49-7.23c64.75-19.7,131.05-35.67,196.51-53.37v48.1l-148.43,37.69c13.19,66.37,31.49,132.23,47.42,198.2.96,4.17,2.6,8.02,7.44,6.3l139.65-63.76c1.81-82.73-2.64-165.87-.16-248.56.15-4.94,2.05-9.52,2.26-14.47.84-19.85-8.26-58.03,19.68-59.78l362.97-1.01c11.08,3.64,15.43,11.88,16.68,23.06l.33,298.7,143.01,66.24,4.69-3.61,48.36-200.04-148.3-41.04ZM730.16,95.61h-303.22v255.12l151.61-68.09c51.49,19.57,101,44.25,151.59,65.98V95.61ZM922.54,1009.44h-55.42c-90.45,71.33-185.58,138.02-288.57,190.13-101.34-53.9-196.89-118.55-286.49-190.13h-55.42c100.2,100.28,219.92,179.7,342.08,250.98,36.06-18.7,71.08-39.94,105.25-61.91,85.42-54.92,167.26-116.77,238.57-189.07Z"/>
        <polygon class="cls-4" points="458.31 750.14 364.21 750.14 421.71 597.46 458.31 750.14"/>
      </g>
      <g>
        <path class="cls-2" d="M741.01,853.62c15.67-2.22,32.48-19.6,35.6-34.95l26.11-203.16c.73-25.29-13.15-44.37-37.8-50.35l-183.22-.35-25.86-108.81,242.96-.08c90.74,9.41,138.87,58.88,132.19,151.56-4.38,60.77-15.06,133.04-24.26,193.78-4.55,30.03-8.78,56.59-24.13,83.29-43.24,75.18-127.05,83.86-206.36,79.52l-53.04-239.56c1.48-36.29,9.65-72.2,14.4-108.2h105.82l-33.67,237.29c9.77-.98,21.82,1.34,31.26,0Z"/>
        <path class="cls-3" d="M501.32,456.01l118.64,508.24h-118.64l-25.67-125.04-138.49-.11-43.46,125.16h-114.63l167.63-455.27c2.67-15.03-13.88-38.3-18.52-52.97h173.15ZM458.03,743l-32.87-168.36-55.31,168.36h88.18Z"/>
      </g>
    </g>
  </g>
</svg>