<?xml version="1.0" encoding="UTF-8"?>
<svg id="Camada_2" data-name="Camada 2" xmlns="http://www.w3.org/2000/svg" viewBox="0 0 1496.48 1734.21">
  <defs>
    <style>
      .cls-1 {
        fill: #090b0e;
      }

      .cls-2 {
        fill: #f46013;
      }

      .cls-3 {
        fill: #fcf6ed;
      }
    </style>
  </defs>
  <g id="Layer_1" data-name="Layer 1">
    <g>
      <path class="cls-2" d="M16.49,1282.36l53.91-342.77c-18.84-16.79-40.39-31.89-58.62-49.33-4.41-4.22-12.3-10.07-11.75-16.25l70.16-119.71.06-303.78,180.17-75.62-46.39-187.24c-2.95-29.38,17.11-56.88,45.55-63.99l237.53-55.11c3.7-2.77,1.99-15.99,3.34-22.41,4.9-23.32,22.37-40.04,45.15-46.15l424.49.48c31.17,8.74,46.35,35.28,46.99,66.55l245.47,60.04c25.46,9.42,40.62,36.16,37.23,62.94l-47.93,186.47,181.24,72.84.38,312.17c.95,5,22.31,18.14,28.14,23.36,24.21,21.69,41.87,48.47,44.53,81.89,3,37.62-14.94,168.6-27.1,204.83-21.27,63.36-83.54,104.18-147.52,114.68-6.47,30.2-7.05,64.86-15.75,94.28-22.53,76.2-146.54,180.58-208.93,231.19-91.42,74.17-201.44,148.05-306.22,201.8-8.13,4.17-36.33,20.02-42.77,20.65-8.25.82-33.25-13.68-42.31-18.31-152.8-78.11-343.56-212.47-458.48-339.83-25.05-27.75-48.1-58.61-62.01-93.68H16.49ZM487.05,156.3v-46.82l-224.83,50.25c-10.98,2.85-20.52,13.67-18.49,25.51l50.74,204.66.25,9.53-186.62,76.75-.44,282.83-65.58,112.34c16.39,13.89,36.32,27.45,51.69,42.26,4.86,4.69,11.63,9.41,11.9,16.4l-49.39,317.24h154.51c1.69,6.81,3.75,13.9,6.6,20.32,27.65,62.22,83.93,113.73,133.83,158.8,117.49,106.13,254.36,197.71,396.46,267.5,106.04-53.65,207.33-117.39,300.97-190.52,60.66-47.38,197.07-158.67,220.38-229.11,12.55-37.9,14.01-81.62,22.02-120.78,23.39-3.59,45.47-5.21,67.69-14.25,50.58-20.56,73.22-59.77,82.8-111.51,6.91-37.32,20.2-111.2,19.53-146.87-.88-47.1-35.57-76.28-75.17-94.02l-.18-311.88-189.16-75.39,53.05-209.92c4.36-17.13-8.09-27.92-23.65-31.33l-219.23-51.16v49.16l191.71,48.35-73.55,274.77-157.59-74.17-.37-341.43c-1.84-17.18-11.13-27.95-29.17-27.01-122.69,7.99-258.26-10.3-379.44.01-21.22,1.81-29.68,7.27-31.62,29.25l.19,327.46-162.71,85.82-66.51-278.27,189.33-44.78Z"/>
      <path class="cls-1" d="M487.05,156.3l-189.33,44.78,66.51,278.27,162.71-85.82-.19-327.46c1.94-21.98,10.4-27.44,31.62-29.25,121.18-10.32,256.75,7.98,379.44-.01,18.05-.94,27.33,9.84,29.17,27.01l.37,341.43,157.59,74.17,73.55-274.77-191.71-48.35v-49.16l219.23,51.16c15.56,3.42,28.01,14.21,23.65,31.33l-53.05,209.92,189.16,75.39.18,311.88c39.6,17.74,74.29,46.92,75.17,94.02.67,35.67-12.63,109.54-19.53,146.87-9.58,51.74-32.22,90.95-82.8,111.51-22.22,9.03-44.31,10.65-67.69,14.25-8.01,39.17-9.48,82.88-22.02,120.78-23.31,70.43-159.72,181.73-220.38,229.11-93.64,73.13-194.93,136.87-300.97,190.52-142.1-69.79-278.98-161.37-396.46-267.5-49.9-45.07-106.19-96.58-133.83-158.8-2.85-6.42-4.91-13.52-6.6-20.32H56.29l49.39-317.24c-.26-6.99-7.04-11.71-11.9-16.4-15.36-14.81-35.29-28.37-51.69-42.26l65.58-112.34.44-282.83,186.62-76.75-.25-9.53-50.74-204.66c-2.03-11.84,7.51-22.66,18.49-25.51l224.83-50.25v46.82ZM916.64,83.72h-342.97v283.27l143.93-81.03,202.53,97.41-3.49-299.66ZM468.33,474.68h80.77c61.15-31.12,122.44-63.2,184.77-91.28l189.81,91.28h76.09l-173.17-87.86-97.06-45.58-261.19,133.44ZM344.25,537.89h-112.37c1.39,8.48,12.33,17.04,10.69,25.73l-94.97,243.49h72.57l16.39-49.16h70.23c3.06,16.23,2.44,32.68,2.34,49.16h74.91l-39.8-269.23ZM408.63,807.12c19.47-2.67,44.28,1.97,64.38,0,1.98-11.11,6.3-85.7,9.39-88.94.82-.86,21.46-.45,23.53,1.01l27.95,87.93h77.26l-35.28-96.99c18.57-6.26,33.34-19.53,38.83-38.75,4.56-15.98,10.52-59.54,10.69-76.13.32-32.36-24.94-53.9-55.5-57.07-50.89-5.28-108.86,2.96-160.08,2.08,6.02,12.88,22.62,20.39,21.25,36.23-8.06,77.7-20.31,155.17-25.91,232.97.85,1.18,2.83-2.25,3.49-2.34ZM840.56,537.89h-182.61c-1.7,10.57,13.41,19.89,13.74,29.13-9.88,80.67-22.18,161.47-27.8,242.45l163.87-2.37,9.38-56.17h-100.67l7.02-53.85h72.57l16.39-56.19h-81.94l7.36-46.49,93.29-.35,9.39-56.17ZM845.24,807.12h65.55l16.41-135.78,57.26,133.51c5.55,5.71,57.61.43,69.11,2.25l32.8-269.2h-66.72l-21.07,145.17-55.28-144.89-67.64-.29-30.42,269.24ZM1268.98,537.89h-119.4c4.57,8.51,19.82,21.63,18.34,30.99l-93.26,238.24h72.57l14.28-46.58c24.33,1.15,48.1-3.2,72.35-2.6l2.33,49.18h77.26l-44.48-269.23ZM131.2,1188.73c10.86-1.85,21.33,1.9,31.52,2.43,48.26,2.52,155.87,5.64,197.88-10.67,34.14-13.26,49.53-36.14,57.48-71.28,10.3-45.49,23.47-123.84,26.8-169.85,3.93-54.26-20.3-79.24-73.62-83.16-62.76-4.62-154.42-3.24-217.91,0-9.46.48-19.09,4.19-29.17,2.46,5.67,10.75,46.06,42.13,46.83,50.35l-39.82,279.74ZM461.3,1188.72h92.47c5.57,0,14.52-100.52,17.58-110.01l31.32-.17,34.2,110.18h100.67l-39.81-112.34c20.61-4.96,40.74-18.25,50.43-37.4,10.68-21.11,25.25-115.85,21.58-138.82-4.65-29.17-30.02-41.61-56.83-43.84-60.25-5.02-154.25-3.46-215.46-.15-8.28.45-16.11,3.14-24.47,2.48l30.39,45.72-42.09,284.35ZM882.13,856.89c-53.31,7.22-64.86,41.94-73.61,87.92-9.79,51.45-24.83,126.82-28.52,177.48-2.86,39.28,21.23,64.03,59.64,68.52,34.78,4.06,109.25,3.17,144.98.34,40.91-3.24,68.54-26.56,79.53-65.62,18.49-65.71,21.54-150.87,31.56-218.88-2.53-27.24-26.51-47.04-52.9-50.11-33.64-3.91-127.53-4.14-160.68.35ZM1354.43,856.28h-227.09c-2.43,0-3.57,4.7-3.13,7.64,1.76,11.96,23.43,30.23,20.74,44.91l-42.19,279.88h93.64l14.07-98.3c50.48-.8,151.63,10.64,176.73-46.84,7.69-17.61,23.34-112.73,21.97-131.97-2.24-31.44-23.99-51.69-54.75-55.33ZM1194.06,1247.24h-64.38c-109.47,118.17-245.16,207.2-383.96,287.13-139.66-79.56-279.46-164.96-386.26-287.13h-64.38c70.12,91.29,164.94,165.69,259.12,231.34,61.62,42.95,125.77,83.64,191.55,119.67,99.66-57.48,197.78-120.21,287.88-191.88,50.67-40.31,113.52-93.64,152-145.32,1.63-2.19,10.29-12.2,8.43-13.81ZM512.81,1315.16c72.31,54.32,152.2,97.97,230.95,142.29,81.77-42.58,160.16-91.89,234.88-145.85l-235.23,55.04-230.6-51.48Z"/>
      <polygon class="cls-2" points="916.64 83.72 920.13 383.38 717.61 285.97 573.67 366.99 573.67 83.72 916.64 83.72"/>
      <path class="cls-2" d="M1194.06,1247.24c1.86,1.6-6.8,11.61-8.43,13.81-38.47,51.68-101.32,105.01-152,145.32-90.1,71.67-188.22,134.4-287.88,191.88-65.79-36.03-129.93-76.72-191.55-119.67-94.18-65.64-189.01-140.05-259.12-231.34h64.38c106.79,122.17,246.6,207.56,386.26,287.13,138.81-79.93,274.49-168.96,383.96-287.13h64.38Z"/>
      <path class="cls-2" d="M512.81,1315.16l230.6,51.48,235.23-55.04c-74.72,53.96-153.11,103.27-234.88,145.85-78.74-44.33-158.64-87.97-230.95-142.29Z"/>
      <path class="cls-2" d="M468.33,474.68l261.19-133.44,97.06,45.58,173.17,87.86h-76.09l-189.81-91.28c-62.32,28.08-123.62,60.16-184.77,91.28h-80.77Z"/>
      <g>
        <path class="cls-2" d="M131.2,1188.73l39.82-279.74c-.78-8.22-41.16-39.6-46.83-50.35,10.08,1.73,19.71-1.98,29.17-2.46,63.49-3.23,155.15-4.61,217.91,0,53.32,3.92,77.55,28.9,73.62,83.16-3.34,46.01-16.5,124.36-26.8,169.85-7.96,35.14-23.34,58.02-57.48,71.28-42,16.32-149.62,13.19-197.88,10.67-10.19-.53-20.65-4.28-31.52-2.43ZM234.22,1120.83h73.74c1.41,0,12.41-7.19,14.02-9.39,2.76-3.79,3.75-9.34,4.83-13.9,8.36-35.1,20.39-110.93,22.08-146.46.79-16.52.74-23.02-17.4-24.67-21.93-2-46.88,1.68-69.15.13l-28.12,194.29Z"/>
        <path class="cls-2" d="M882.13,856.89c33.15-4.49,127.04-4.26,160.68-.35,26.39,3.07,50.37,22.87,52.9,50.11-10.02,68.02-13.07,153.18-31.56,218.88-10.99,39.05-38.62,62.38-79.53,65.62-35.73,2.83-110.2,3.73-144.98-.34-38.4-4.49-62.5-29.24-59.64-68.52,3.69-50.66,18.73-126.03,28.52-177.48,8.75-45.98,20.31-80.7,73.61-87.92ZM921.88,924.73c-8.78,1.57-15.25,6.77-17.01,15.76l-26.49,169.24c1.83,5.22,4.37,9.93,10.22,11.05,8.56,1.64,63.77,1.6,72.46-.01,5.29-.98,9.41-5.51,10.42-10.65l25.92-175.3c-.57-3.42-1.77-5.29-4.79-7.02-8.76-5.02-59.37-5.11-70.74-3.07Z"/>
        <path class="cls-2" d="M461.3,1188.72l42.09-284.35-30.39-45.72c8.36.66,16.19-2.03,24.47-2.48,61.2-3.32,155.2-4.87,215.46.15,26.81,2.23,52.18,14.67,56.83,43.84,3.66,22.97-10.9,117.71-21.58,138.82-9.69,19.15-29.82,32.44-50.43,37.4l39.81,112.34h-100.67l-34.2-110.18-31.32.17c-3.06,9.49-12.01,110.01-17.58,110.01h-92.47ZM580.7,1015.48h66.72c1.22,0,13.72-4.66,15.18-5.89,6.58-5.56,17.36-74.75,13.75-80.4-25.19-9.64-54.68-3.41-81.36-4.76l-14.29,91.05Z"/>
        <path class="cls-2" d="M1354.43,856.28c30.77,3.64,52.51,23.89,54.75,55.33,1.37,19.23-14.28,114.35-21.97,131.97-25.11,57.48-126.26,46.04-176.73,46.84l-14.07,98.3h-93.64l42.19-279.88c2.69-14.68-18.99-32.95-20.74-44.91-.43-2.95.71-7.64,3.13-7.64h227.09ZM1219.82,1020.16h69.06c4.28,0,14.5-11.92,16.02-16.75,3.21-10.19,8.03-45.67,8.53-57.02.7-15.84-.84-20.81-17.42-22.32-7.87-.72-59.02-.85-61.14,2.3l-15.06,93.8Z"/>
        <path class="cls-1" d="M234.22,1120.83l28.12-194.29c22.28,1.55,47.22-2.13,69.15-.13,18.14,1.65,18.19,8.15,17.4,24.67-1.69,35.53-13.72,111.36-22.08,146.46-1.08,4.55-2.07,10.11-4.83,13.9-1.6,2.2-12.61,9.39-14.02,9.39h-73.74Z"/>
        <path class="cls-1" d="M921.88,924.73c11.37-2.04,61.98-1.95,70.74,3.07,3.02,1.73,4.22,3.6,4.79,7.02l-25.92,175.3c-1.02,5.13-5.14,9.67-10.42,10.65-8.69,1.61-63.91,1.66-72.46.01-5.84-1.12-8.39-5.83-10.22-11.05l26.49-169.24c1.76-8.99,8.23-14.19,17.01-15.76Z"/>
        <path class="cls-1" d="M580.7,1015.48l14.29-91.05c26.68,1.35,56.17-4.89,81.36,4.76,3.61,5.65-7.17,74.85-13.75,80.4-1.46,1.23-13.96,5.89-15.18,5.89h-66.72Z"/>
        <path class="cls-1" d="M1219.82,1020.16l15.06-93.8c2.12-3.14,53.27-3.01,61.14-2.3,16.58,1.51,18.11,6.48,17.42,22.32-.5,11.35-5.32,46.83-8.53,57.02-1.52,4.83-11.74,16.75-16.02,16.75h-69.06Z"/>
      </g>
      <g>
        <path class="cls-3" d="M845.24,807.12l30.42-269.24,67.64.29,55.28,144.89,21.07-145.17h66.72l-32.8,269.2c-11.5-1.82-63.56,3.46-69.11-2.25l-57.26-133.51-16.41,135.78h-65.55Z"/>
        <path class="cls-3" d="M840.56,537.89l-9.39,56.17-93.29.35-7.36,46.49h81.94l-16.39,56.19h-72.57l-7.02,53.85h100.67l-9.38,56.17-163.87,2.37c5.62-80.98,17.92-161.78,27.8-242.45-.34-9.25-15.44-18.56-13.74-29.13h182.61Z"/>
        <g>
          <path class="cls-3" d="M408.63,807.12c-.66.09-2.64,3.52-3.49,2.34,5.6-77.81,17.85-155.28,25.91-232.97,1.37-15.84-15.23-23.35-21.25-36.23,51.22.89,109.18-7.36,160.08-2.08,30.55,3.17,55.82,24.71,55.5,57.07-.17,16.59-6.13,60.15-10.69,76.13-5.49,19.23-20.26,32.5-38.83,38.75l35.28,96.99h-77.26l-27.95-87.93c-2.07-1.46-22.71-1.86-23.53-1.01-3.09,3.24-7.4,77.83-9.39,88.94-20.1,1.97-44.91-2.67-64.38,0ZM489.4,664.31h47.99c1.96,0,8.96-5.8,10.02-8.71,2.39-6.59,6.73-51.92,4.81-57.63-3.49-10.4-43.33-5.76-53.61-5.22l-9.21,71.56Z"/>
          <path class="cls-1" d="M489.4,664.31l9.21-71.56c10.28-.54,50.12-5.17,53.61,5.22,1.92,5.7-2.42,51.03-4.81,57.63-1.06,2.91-8.06,8.71-10.02,8.71h-47.99Z"/>
        </g>
        <g>
          <path class="cls-3" d="M1268.98,537.89l44.48,269.23h-77.26l-2.33-49.18c-24.25-.6-48.03,3.75-72.35,2.6l-14.28,46.58h-72.57l93.26-238.24c1.48-9.36-13.77-22.48-18.34-30.99h119.4ZM1226.84,706.45l-9.39-100.67-37.43,100.67h46.82Z"/>
          <polygon class="cls-1" points="1226.84 706.45 1180.02 706.45 1217.45 605.79 1226.84 706.45"/>
        </g>
        <g>
          <path class="cls-3" d="M344.25,537.89l39.8,269.23h-74.91c.1-16.48.72-32.93-2.34-49.16h-70.23l-16.39,49.16h-72.57l94.97-243.49c1.64-8.7-9.3-17.25-10.69-25.73h112.37ZM302.11,704.11l-9.39-103.01-39.78,103.01h49.16Z"/>
          <polygon class="cls-1" points="302.11 704.11 252.95 704.11 292.72 601.1 302.11 704.11"/>
        </g>
      </g>
    </g>
  </g>
</svg>